# xmcd
#
# Track frame offsets:
#	150
#	18056
#	36007
#	52403
#	69505
#	87474
#	105699
#	123053
#	144010
#	163869
#	185236
#	205683
#	224422
#	243364
#	259548
#	276108
#	294610
#	311536
#
# Disc length: 4384 seconds
#
# Revision: 0
# Processed by: cddbd v1.5.1PL0 Copyright (c) Steve Scherf et al.
# Submitted via: dBpowerAMP V4.0
#
DISCID=08111e12
DTITLE=Various Artist - Energy Dancepower 1996 Vol.1
DYEAR=1996
DGENRE=
TTITLE0=Critical Mass - Burnin' Love
TTITLE1=Coronoa - I Don't wanna Be A Star
TTITLE2=Duke - Make Believeland
TTITLE3=Double Vision - Allright
TTITLE4=Def Real - Me and The Pizza
TTITLE5=Kellee - My Love
TTITLE6=M People - Itchycoo Park
TTITLE7=Simply red - Remembering The first Time
TTITLE8=Live - Lightning Crashes
TTITLE9=Symbol - Gold
TTITLE10=Seal - Don't Cry
TTITLE11=Jeremy Jackson - French Kiss
TTITLE12=Skee-Lo - I Wish
TTITLE13=Urban Cookie Collective - So Beautiful
TTITLE14=Backstreet Boys - We've Got It Going On
TTITLE15=Luniz - I Got 5 On It
TTITLE16=Enya - Anywhere Is
TTITLE17=Queen - A Winters Tale
EXTD=
EXTT0=
EXTT1=
EXTT2=
EXTT3=
EXTT4=
EXTT5=
EXTT6=
EXTT7=
EXTT8=
EXTT9=
EXTT10=
EXTT11=
EXTT12=
EXTT13=
EXTT14=
EXTT15=
EXTT16=
EXTT17=
PLAYORDER=
